<svg xmlns="http://www.w3.org/2000/svg" class="w-5 h-5" viewBox="8 8.9 84.1 84.1" width="24" height="24" preserveAspectRatio="xMidYMid meet">
  <g fill="#FFFFFF">
    <path d="M81 9C74.9 9 70 13.9 70 20 70 21.2 70.2 22.4 70.6 23.6L54.3 39.9C53 39.3 51.5 39 50 39 43.9 39 39 43.9 39 50S43.9 61 50 61 61 56.1 61 50C61 47.6 60.2 45.5 59 43.7L74.1 28.6C76 30.1 78.4 31 81 31 87.1 31 92 26.1 92 20S87.1 9 81 9M50 55C47.2 55 45 52.8 45 50S47.2 45 50 45 55 47.2 55 50 52.8 55 50 55M81 25C78.2 25 76 22.8 76 20S78.2 15 81 15 86 17.2 86 20 83.8 25 81 25"></path>
    <path d="M50 31C56.1 31 61 26.1 61 20S56.1 9 50 9 39 13.9 39 20 43.9 31 50 31M50 15C52.8 15 55 17.2 55 20S52.8 25 50 25 45 22.8 45 20 47.2 15 50 15"></path>
    <path d="M81 39C74.9 39 70 43.9 70 50S74.9 61 81 61 92 56.1 92 50 87.1 39 81 39M81 55C78.2 55 76 52.8 76 50S78.2 45 81 45 86 47.2 86 50 83.8 55 81 55"></path>
    <path d="M19 91C25.1 91 30 86.1 30 80S25.1 69 19 69 8 73.9 8 80 12.9 91 19 91M19 75C21.8 75 24 77.2 24 80S21.8 85 19 85 14 82.8 14 80 16.2 75 19 75"></path>
    <path d="M81 69C76 69 71.7 72.4 70.4 77H60.5C59.2 72.4 55 69 49.9 69 46.9 69 44.1 70.2 42.1 72.2L27.1 57.2C29 55.3 30 52.8 30 50 30 45 26.6 40.7 22 39.4V30.5C26.6 29.2 30 25 30 19.9 30 13.8 25.1 8.9 19 8.9S8 13.9 8 20C8 25 11.4 29.3 16 30.6V39.5C11.4 40.7 8 45 8 50 8 56.1 12.9 61 19 61 20.1 61 21.1 60.8 22.1 60.6L39.3 77.8C39.1 78.5 39 79.2 39 80 39 86.1 43.9 91 50 91 55 91 59.3 87.6 60.6 83H70.5C71.8 87.6 76 91 81.1 91 87.2 91 92.1 86.1 92.1 80S87.1 69 81 69M14 20C14 17.2 16.2 15 19 15S24 17.2 24 20 21.8 25 19 25 14 22.8 14 20M14 50C14 47.2 16.2 45 19 45S24 47.2 24 50 21.8 55 19 55 14 52.8 14 50M50 85C47.2 85 45 82.8 45 80S47.2 75 50 75 55 77.2 55 80 52.8 85 50 85M81 85C78.2 85 76 82.8 76 80S78.2 75 81 75 86 77.2 86 80 83.8 85 81 85"></path>
  </g>
</svg>
