<svg
  xmlns="http://www.w3.org/2000/svg"
  version="1.1"
  xmlns:xlink="http://www.w3.org/1999/xlink"
  xmlns:svgjs="http://svgjs.dev/svgjs"
  width="2000"
  height="126"
  viewBox="0 0 2000 126"
>
  <g transform="matrix(1,0,0,1,-1.2121212121212466,-1.7443489878134244)">
    <svg
      viewBox="0 0 396 25"
      data-background-color="#ffffff"
      preserveAspectRatio="xMidYMid meet"
      height="126"
      width="2000"
      xmlns="http://www.w3.org/2000/svg"
      xmlns:xlink="http://www.w3.org/1999/xlink"
    >
      <g
        id="tight-bounds"
        transform="matrix(1,0,0,1,0.2400000000000091,0.34610098964552094)"
      >
        <svg
          viewBox="0 0 395.52 24.307798020708947"
          height="24.307798020708947"
          width="395.52"
        >
          <g>
            <svg
              viewBox="0 0 426.97585698421074 26.24100650103991"
              height="24.307798020708947"
              width="395.52"
            >
              <g transform="matrix(1,0,0,1,31.455856984210783,0)">
                <svg
                  viewBox="0 0 395.52 26.24100650103991"
                  height="26.24100650103991"
                  width="395.52"
                >
                  <g id="textblocktransform">
                    <svg
                      viewBox="0 0 395.52 26.24100650103991"
                      height="26.24100650103991"
                      width="395.52"
                      id="textblock"
                    >
                      <g>
                        <svg
                          viewBox="0 0 395.52 26.24100650103991"
                          height="26.24100650103991"
                          width="395.52"
                        >
                          <g transform="matrix(1,0,0,1,0,0)">
                            <svg
                              width="395.52"
                              viewBox="0.65 -35.6 545.5878515625 36.2"
                              height="26.24100650103991"
                              data-palette-color="#155dfc"
                            >
                              <g transform="matrix(1,0,0,1,0,0)">
                                <g>
                                  <svg
                                    width="15.985234375"
                                    viewBox="1.78 -36.36 74.21 36.36"
                                    height="7.832000000000001"
                                    data-palette-color="#155dfc"
                                    id="scriptelement"
                                    x="530.2526171874999"
                                    y="-35.6"
                                  >
                                    <path
                                      d="M12.91-30.02L1.78-30.02 1.78-36.36 31.64-36.36 31.64-30.02 20.51-30.02 20.51 0 12.91 0 12.91-30.02ZM36.57 0L36.57-36.36 46.06-36.36 56.07-11.93 56.5-11.93 66.51-36.36 75.99-36.36 75.99 0 68.53 0 68.53-23.67 68.23-23.67 58.82-0.18 53.74-0.18 44.33-23.76 44.03-23.76 44.03 0 36.57 0Z"
                                      opacity="1"
                                      transform="matrix(1,0,0,1,0,0)"
                                      fill="#155dfc"
                                      class="undefined-123"
                                      data-fill-palette-color="primary"
                                      id="tk-123"
                                    ></path>
                                  </svg>
                                </g>
                              </g>
                              <path
                                d="M17.2 0L11.4 0 11.4-29.7 0.65-29.7 0.65-35 27.95-35 27.95-29.7 17.2-29.7 17.2 0ZM59.85 0L53.7 0 40.05-35 45.85-35 59.85 0ZM31.9 0L25.75 0 39.7-35 45.55-35 31.9 0ZM53.25-8.6L32.3-8.6 32.3-13.75 53.25-13.75 53.25-8.6ZM70.2 0L64.4 0 64.4-35 70.4-35 89-9.7 89-35 94.8-35 94.8 0 89 0 70.2-25.6 70.2 0ZM119.14 0.6L119.14 0.6Q113.84 0.6 109.72-1.73 105.59-4.05 103.24-8.13 100.89-12.2 100.89-17.45L100.89-17.45Q100.89-22.8 103.24-26.88 105.59-30.95 109.72-33.27 113.84-35.6 119.14-35.6L119.14-35.6Q122.19-35.6 124.87-34.65 127.54-33.7 129.69-32.08 131.84-30.45 133.19-28.3L133.19-28.3 128.49-25.3Q127.54-26.75 126.04-27.9 124.54-29.05 122.77-29.68 120.99-30.3 119.14-30.3L119.14-30.3Q115.54-30.3 112.77-28.65 109.99-27 108.39-24.13 106.79-21.25 106.79-17.45L106.79-17.45Q106.79-13.75 108.37-10.85 109.94-7.95 112.77-6.3 115.59-4.65 119.29-4.65L119.29-4.65Q122.19-4.65 124.49-5.85 126.79-7.05 128.12-9.2 129.44-11.35 129.44-14.15L129.44-14.15 134.99-14.85Q134.99-10.1 132.97-6.63 130.94-3.15 127.37-1.28 123.79 0.6 119.14 0.6ZM131.89-13.7L121.04-13.7 121.04-18.4 134.99-18.4 134.99-14.5 131.89-13.7ZM162.29 0L140.59 0 140.59-35 162.14-35 162.14-29.7 146.39-29.7 146.39-20.4 160.29-20.4 160.29-15.2 146.39-15.2 146.39-5.3 162.29-5.3 162.29 0ZM175.89 0L170.09 0 170.09-35 176.09-35 194.69-9.7 194.69-35 200.49-35 200.49 0 194.69 0 175.89-25.6 175.89 0ZM221.83 0L216.03 0 216.03-29.7 205.28-29.7 205.28-35 232.58-35 232.58-29.7 221.83-29.7 221.83 0ZM255.23 0L249.43 0 249.43-35 255.43-35 274.03-9.7 274.03-35 279.83-35 279.83 0 274.03 0 255.23-25.6 255.23 0ZM309.83 0L288.13 0 288.13-35 309.68-35 309.68-29.7 293.93-29.7 293.93-20.4 307.83-20.4 307.83-15.2 293.93-15.2 293.93-5.3 309.83-5.3 309.83 0ZM330.68 0L324.88 0 324.88-29.7 314.13-29.7 314.13-35 341.43-35 341.43-29.7 330.68-29.7 330.68 0ZM379.77 0L374.17 0 384.47-35 390.37-35 379.77 0ZM358.62 0L352.97 0 342.52-35 348.37-35 358.62 0ZM359.12 0L353.72 0 363.57-35 368.92-35 359.12 0ZM379.27 0L373.62 0 363.97-35 369.32-35 379.27 0ZM410.52 0.6L410.52 0.6Q405.32 0.6 401.32-1.7 397.32-4 395.05-8.1 392.77-12.2 392.77-17.5L392.77-17.5Q392.77-22.8 395.05-26.88 397.32-30.95 401.27-33.27 405.22-35.6 410.37-35.6L410.37-35.6Q415.57-35.6 419.55-33.27 423.52-30.95 425.75-26.88 427.97-22.8 427.97-17.5L427.97-17.5Q427.97-12.2 425.75-8.1 423.52-4 419.6-1.7 415.67 0.6 410.52 0.6ZM410.52-4.7L410.52-4.7Q413.92-4.7 416.52-6.35 419.12-8 420.6-10.88 422.07-13.75 422.07-17.5L422.07-17.5Q422.07-21.2 420.57-24.1 419.07-27 416.45-28.63 413.82-30.25 410.37-30.25L410.37-30.25Q406.97-30.25 404.35-28.63 401.72-27 400.2-24.13 398.67-21.25 398.67-17.5L398.67-17.5Q398.67-13.75 400.2-10.88 401.72-8 404.4-6.35 407.07-4.7 410.52-4.7ZM439.92 0L434.12 0 434.12-35 446.47-35Q450.07-35 452.82-33.6 455.57-32.2 457.12-29.73 458.67-27.25 458.67-24L458.67-24Q458.67-20.75 457.04-18.25 455.42-15.75 452.57-14.33 449.72-12.9 446.12-12.9L446.12-12.9 439.92-12.9 439.92 0ZM460.07 0L453.52 0 445.32-14.2 449.82-17.3 460.07 0ZM439.92-29.7L439.92-18.25 446.72-18.25Q448.42-18.25 449.74-19 451.07-19.75 451.89-21.05 452.72-22.35 452.72-24L452.72-24Q452.72-26.5 450.92-28.1 449.12-29.7 446.27-29.7L446.27-29.7 439.92-29.7ZM493.07-35L469.57-10.1 468.42-16.8 485.62-35 493.07-35ZM471.67 0L465.97 0 465.97-35 471.67-35 471.67 0ZM493.67 0L486.52 0 472.42-17.8 476.52-21.35 493.67 0ZM509.66 0.6L509.66 0.6Q506.91 0.6 504.64-0.05 502.36-0.7 500.64-1.85 498.91-3 497.79-4.42 496.66-5.85 496.21-7.4L496.21-7.4 501.91-9.15Q502.56-7.3 504.46-5.9 506.36-4.5 509.16-4.45L509.16-4.45Q512.41-4.45 514.31-5.8 516.21-7.15 516.21-9.35L516.21-9.35Q516.21-11.35 514.61-12.63 513.01-13.9 510.31-14.6L510.31-14.6 506.01-15.7Q503.56-16.35 501.59-17.6 499.61-18.85 498.49-20.75 497.36-22.65 497.36-25.25L497.36-25.25Q497.36-30.15 500.56-32.88 503.76-35.6 509.71-35.6L509.71-35.6Q513.06-35.6 515.59-34.58 518.11-33.55 519.76-31.78 521.41-30 522.21-27.75L522.21-27.75 516.61-25.95Q515.86-27.95 514.01-29.25 512.16-30.55 509.41-30.55L509.41-30.55Q506.56-30.55 504.94-29.2 503.31-27.85 503.31-25.45L503.31-25.45Q503.31-23.5 504.59-22.43 505.86-21.35 508.06-20.8L508.06-20.8 512.36-19.75Q517.06-18.6 519.66-15.8 522.26-13 522.26-9.6L522.26-9.6Q522.26-6.6 520.81-4.3 519.36-2 516.54-0.7 513.71 0.6 509.66 0.6Z"
                                opacity="1"
                                transform="matrix(1,0,0,1,0,0)"
                                fill="#155dfc"
                                class="wordmark-text-0"
                                data-fill-palette-color="primary"
                                id="text-0"
                              ></path>
                            </svg>
                          </g>
                        </svg>
                      </g>
                    </svg>
                  </g>
                </svg>
              </g>
              <g transform="matrix(1,0,0,1,0,0.7903791158113194)">
                <svg
                  viewBox="0 0 25.260985133471284 24.66024826941727"
                  height="24.66024826941727"
                  width="25.260985133471284"
                >
                  <g>
                    <svg
                      xmlns="http://www.w3.org/2000/svg"
                      xmlns:xlink="http://www.w3.org/1999/xlink"
                      version="1.1"
                      x="0"
                      y="0"
                      viewBox="8 8.9 84.1 82.1"
                      style="enable-background:new 0 0 100 100;"
                      xml:space="preserve"
                      height="24.66024826941727"
                      width="25.260985133471284"
                      class="icon-icon-0"
                      data-fill-palette-color="accent"
                      id="icon-0"
                    >
                      <g fill="#155dfc" data-fill-palette-color="accent">
                        <path
                          d="M81 9C74.9 9 70 13.9 70 20 70 21.2 70.2 22.4 70.6 23.6L54.3 39.9C53 39.3 51.5 39 50 39 43.9 39 39 43.9 39 50S43.9 61 50 61 61 56.1 61 50C61 47.6 60.2 45.5 59 43.7L74.1 28.6C76 30.1 78.4 31 81 31 87.1 31 92 26.1 92 20S87.1 9 81 9M50 55C47.2 55 45 52.8 45 50S47.2 45 50 45 55 47.2 55 50 52.8 55 50 55M81 25C78.2 25 76 22.8 76 20S78.2 15 81 15 86 17.2 86 20 83.8 25 81 25"
                          fill="#155dfc"
                          data-fill-palette-color="accent"
                        ></path>
                        <path
                          d="M50 31C56.1 31 61 26.1 61 20S56.1 9 50 9 39 13.9 39 20 43.9 31 50 31M50 15C52.8 15 55 17.2 55 20S52.8 25 50 25 45 22.8 45 20 47.2 15 50 15"
                          fill="#155dfc"
                          data-fill-palette-color="accent"
                        ></path>
                        <path
                          d="M81 39C74.9 39 70 43.9 70 50S74.9 61 81 61 92 56.1 92 50 87.1 39 81 39M81 55C78.2 55 76 52.8 76 50S78.2 45 81 45 86 47.2 86 50 83.8 55 81 55"
                          fill="#155dfc"
                          data-fill-palette-color="accent"
                        ></path>
                        <path
                          d="M19 91C25.1 91 30 86.1 30 80S25.1 69 19 69 8 73.9 8 80 12.9 91 19 91M19 75C21.8 75 24 77.2 24 80S21.8 85 19 85 14 82.8 14 80 16.2 75 19 75"
                          fill="#155dfc"
                          data-fill-palette-color="accent"
                        ></path>
                        <path
                          d="M81 69C76 69 71.7 72.4 70.4 77H60.5C59.2 72.4 55 69 49.9 69 46.9 69 44.1 70.2 42.1 72.2L27.1 57.2C29 55.3 30 52.8 30 50 30 45 26.6 40.7 22 39.4V30.5C26.6 29.2 30 25 30 19.9 30 13.8 25.1 8.9 19 8.9S8 13.9 8 20C8 25 11.4 29.3 16 30.6V39.5C11.4 40.7 8 45 8 50 8 56.1 12.9 61 19 61 20.1 61 21.1 60.8 22.1 60.6L39.3 77.8C39.1 78.5 39 79.2 39 80 39 86.1 43.9 91 50 91 55 91 59.3 87.6 60.6 83H70.5C71.8 87.6 76 91 81.1 91 87.2 91 92.1 86.1 92.1 80S87.1 69 81 69M14 20C14 17.2 16.2 15 19 15S24 17.2 24 20 21.8 25 19 25 14 22.8 14 20M14 50C14 47.2 16.2 45 19 45S24 47.2 24 50 21.8 55 19 55 14 52.8 14 50M50 85C47.2 85 45 82.8 45 80S47.2 75 50 75 55 77.2 55 80 52.8 85 50 85M81 85C78.2 85 76 82.8 76 80S78.2 75 81 75 86 77.2 86 80 83.8 85 81 85"
                          fill="#155dfc"
                          data-fill-palette-color="accent"
                        ></path>
                      </g>
                    </svg>
                  </g>
                </svg>
              </g>
            </svg>
          </g>
          <defs></defs>
        </svg>
        <rect
          width="395.52"
          height="24.307798020708947"
          fill="none"
          stroke="none"
          visibility="hidden"
        ></rect>
      </g>
    </svg>
  </g>
</svg>
