<?xml version="1.0" encoding="UTF-8"?>
<svg xmlns="http://www.w3.org/2000/svg" xmlns:xlink="http://www.w3.org/1999/xlink" width="381px" height="24px" viewBox="0 0 380 24" version="1.1">
<defs>
<clipPath id="clip1">
  <path d="M 368.851562 0 L 379.128906 0 L 379.128906 5.046875 L 368.851562 5.046875 Z M 368.851562 0 "/>
</clipPath>
<clipPath id="clip2">
  <path d="M 28.296875 0 L 364 0 L 364 23.335938 L 28.296875 23.335938 Z M 28.296875 0 "/>
</clipPath>
<clipPath id="clip3">
  <path d="M 8 0.703125 L 22.800781 0.703125 L 22.800781 15 L 8 15 Z M 8 0.703125 "/>
</clipPath>
<clipPath id="clip4">
  <path d="M 8 0.703125 L 15 0.703125 L 15 7 L 8 7 Z M 8 0.703125 "/>
</clipPath>
<clipPath id="clip5">
  <path d="M 16 8 L 22.800781 8 L 22.800781 15 L 16 15 Z M 16 8 "/>
</clipPath>
<clipPath id="clip6">
  <path d="M 0.394531 16 L 7 16 L 7 22.632812 L 0.394531 22.632812 Z M 0.394531 16 "/>
</clipPath>
<clipPath id="clip7">
  <path d="M 0.394531 0.703125 L 22.800781 0.703125 L 22.800781 22.632812 L 0.394531 22.632812 Z M 0.394531 0.703125 "/>
</clipPath>
</defs>
<g id="surface1">
<g clip-path="url(#clip1)" clip-rule="nonzero">
<path style=" stroke:none;fill-rule:nonzero;fill:rgb(100%,100%,100%);fill-opacity:1;" d="M 370.394531 0.878906 L 368.851562 0.878906 L 368.851562 0 L 372.988281 0 L 372.988281 0.878906 L 371.449219 0.878906 L 371.449219 5.046875 L 370.394531 5.046875 Z M 373.671875 5.046875 L 373.671875 0 L 374.984375 0 L 376.371094 3.390625 L 376.433594 3.390625 L 377.820312 0 L 379.132812 0 L 379.132812 5.046875 L 378.097656 5.046875 L 378.097656 1.761719 L 378.058594 1.761719 L 376.753906 5.023438 L 376.050781 5.023438 L 374.746094 1.75 L 374.703125 1.75 L 374.703125 5.046875 Z M 373.671875 5.046875 "/>
</g>
<g clip-path="url(#clip2)" clip-rule="nonzero">
<path style=" stroke:none;fill-rule:nonzero;fill:rgb(100%,100%,100%);fill-opacity:1;" d="M 38.953125 22.949219 L 35.222656 22.949219 L 35.222656 3.804688 L 28.3125 3.804688 L 28.3125 0.386719 L 45.863281 0.386719 L 45.863281 3.804688 L 38.953125 3.804688 Z M 66.378906 22.949219 L 62.421875 22.949219 L 53.644531 0.386719 L 57.375 0.386719 Z M 48.40625 22.949219 L 44.449219 22.949219 L 53.421875 0.386719 L 57.183594 0.386719 Z M 62.132812 17.40625 L 48.660156 17.40625 L 48.660156 14.085938 L 62.132812 14.085938 Z M 73.03125 22.949219 L 69.304688 22.949219 L 69.304688 0.386719 L 73.160156 0.386719 L 85.121094 16.695312 L 85.121094 0.386719 L 88.851562 0.386719 L 88.851562 22.949219 L 85.121094 22.949219 L 73.03125 6.445312 Z M 104.5 23.335938 C 102.230469 23.335938 100.210938 22.835938 98.445312 21.832031 C 96.671875 20.835938 95.285156 19.460938 94.277344 17.707031 C 93.269531 15.957031 92.765625 13.957031 92.765625 11.699219 C 92.765625 9.402344 93.269531 7.375 94.277344 5.621094 C 95.285156 3.871094 96.671875 2.5 98.445312 1.503906 C 100.210938 0.5 102.230469 0 104.5 0 C 105.808594 0 107.035156 0.203125 108.1875 0.613281 C 109.332031 1.019531 110.363281 1.574219 111.285156 2.269531 C 112.207031 2.96875 112.957031 3.78125 113.535156 4.707031 L 110.511719 6.640625 C 110.105469 6.015625 109.582031 5.457031 108.9375 4.964844 C 108.296875 4.46875 107.59375 4.085938 106.835938 3.816406 C 106.074219 3.550781 105.292969 3.417969 104.5 3.417969 C 102.957031 3.417969 101.59375 3.769531 100.40625 4.480469 C 99.214844 5.1875 98.273438 6.160156 97.589844 7.394531 C 96.902344 8.632812 96.558594 10.066406 96.558594 11.699219 C 96.558594 13.289062 96.898438 14.707031 97.574219 15.953125 C 98.25 17.199219 99.191406 18.179688 100.40625 18.886719 C 101.613281 19.597656 103.011719 19.953125 104.597656 19.953125 C 105.839844 19.953125 106.957031 19.691406 107.941406 19.175781 C 108.925781 18.660156 109.707031 17.941406 110.277344 17.019531 C 110.839844 16.09375 111.125 15.03125 111.125 13.828125 L 114.691406 13.375 C 114.691406 15.417969 114.261719 17.183594 113.394531 18.675781 C 112.523438 20.171875 111.324219 21.320312 109.792969 22.125 C 108.257812 22.929688 106.496094 23.335938 104.5 23.335938 Z M 112.699219 14.117188 L 105.722656 14.117188 L 105.722656 11.085938 L 114.691406 11.085938 L 114.691406 13.601562 Z M 132.246094 22.949219 L 118.292969 22.949219 L 118.292969 0.386719 L 132.152344 0.386719 L 132.152344 3.804688 L 122.023438 3.804688 L 122.023438 9.796875 L 130.960938 9.796875 L 130.960938 13.148438 L 122.023438 13.148438 L 122.023438 19.53125 L 132.246094 19.53125 Z M 140.992188 22.949219 L 137.261719 22.949219 L 137.261719 0.386719 L 141.121094 0.386719 L 153.082031 16.695312 L 153.082031 0.386719 L 156.8125 0.386719 L 156.8125 22.949219 L 153.082031 22.949219 L 140.992188 6.445312 Z M 170.53125 22.949219 L 166.804688 22.949219 L 166.804688 3.804688 L 159.890625 3.804688 L 159.890625 0.386719 L 177.445312 0.386719 L 177.445312 3.804688 L 170.53125 3.804688 Z M 192.007812 22.949219 L 188.28125 22.949219 L 188.28125 0.386719 L 192.136719 0.386719 L 204.097656 16.695312 L 204.097656 0.386719 L 207.828125 0.386719 L 207.828125 22.949219 L 204.097656 22.949219 L 192.007812 6.445312 Z M 227.117188 22.949219 L 213.164062 22.949219 L 213.164062 0.386719 L 227.023438 0.386719 L 227.023438 3.804688 L 216.894531 3.804688 L 216.894531 9.796875 L 225.832031 9.796875 L 225.832031 13.148438 L 216.894531 13.148438 L 216.894531 19.53125 L 227.117188 19.53125 Z M 240.523438 22.949219 L 236.796875 22.949219 L 236.796875 3.804688 L 229.882812 3.804688 L 229.882812 0.386719 L 247.4375 0.386719 L 247.4375 3.804688 L 240.523438 3.804688 Z M 272.089844 22.949219 L 268.488281 22.949219 L 275.113281 0.386719 L 278.90625 0.386719 Z M 258.492188 22.949219 L 254.859375 22.949219 L 248.136719 0.386719 L 251.898438 0.386719 Z M 258.8125 22.949219 L 255.339844 22.949219 L 261.671875 0.386719 L 265.113281 0.386719 Z M 271.769531 22.949219 L 268.136719 22.949219 L 261.929688 0.386719 L 265.371094 0.386719 Z M 291.863281 23.335938 C 289.632812 23.335938 287.664062 22.839844 285.949219 21.851562 C 284.234375 20.863281 282.890625 19.488281 281.914062 17.726562 C 280.9375 15.964844 280.449219 13.945312 280.449219 11.667969 C 280.449219 9.390625 280.9375 7.375 281.914062 5.621094 C 282.890625 3.871094 284.222656 2.5 285.914062 1.503906 C 287.609375 0.5 289.558594 0 291.765625 0 C 293.996094 0 295.964844 0.5 297.667969 1.503906 C 299.371094 2.5 300.699219 3.871094 301.65625 5.621094 C 302.609375 7.375 303.082031 9.390625 303.082031 11.667969 C 303.082031 13.945312 302.609375 15.964844 301.65625 17.726562 C 300.699219 19.488281 299.382812 20.863281 297.703125 21.851562 C 296.015625 22.839844 294.070312 23.335938 291.863281 23.335938 Z M 291.863281 19.917969 C 293.320312 19.917969 294.605469 19.5625 295.722656 18.855469 C 296.835938 18.144531 297.710938 17.171875 298.34375 15.933594 C 298.976562 14.703125 299.289062 13.28125 299.289062 11.667969 C 299.289062 10.078125 298.96875 8.660156 298.324219 7.414062 C 297.683594 6.167969 296.800781 5.195312 295.675781 4.492188 C 294.550781 3.796875 293.246094 3.449219 291.765625 3.449219 C 290.308594 3.449219 289.019531 3.796875 287.894531 4.492188 C 286.769531 5.195312 285.878906 6.160156 285.226562 7.394531 C 284.570312 8.632812 284.242188 10.054688 284.242188 11.667969 C 284.242188 13.28125 284.570312 14.703125 285.226562 15.933594 C 285.878906 17.171875 286.777344 18.144531 287.929688 18.855469 C 289.074219 19.5625 290.382812 19.917969 291.863281 19.917969 Z M 310.769531 22.949219 L 307.039062 22.949219 L 307.039062 0.386719 L 314.980469 0.386719 C 316.523438 0.386719 317.882812 0.6875 319.0625 1.289062 C 320.242188 1.890625 321.164062 2.722656 321.828125 3.785156 C 322.492188 4.851562 322.824219 6.082031 322.824219 7.476562 C 322.824219 8.875 322.476562 10.109375 321.777344 11.183594 C 321.082031 12.257812 320.125 13.101562 318.902344 13.710938 C 317.679688 14.324219 316.296875 14.632812 314.753906 14.632812 L 310.769531 14.632812 Z M 323.722656 22.949219 L 319.511719 22.949219 L 314.238281 13.796875 L 317.132812 11.796875 Z M 310.769531 3.804688 L 310.769531 11.183594 L 315.140625 11.183594 C 315.867188 11.183594 316.515625 11.023438 317.082031 10.699219 C 317.652344 10.378906 318.113281 9.9375 318.464844 9.378906 C 318.820312 8.820312 319 8.1875 319 7.476562 C 319 6.402344 318.613281 5.523438 317.839844 4.835938 C 317.070312 4.148438 316.074219 3.804688 314.851562 3.804688 Z M 344.945312 0.386719 L 329.832031 16.4375 L 329.09375 12.117188 L 340.152344 0.386719 Z M 331.183594 22.949219 L 327.519531 22.949219 L 327.519531 0.386719 L 331.183594 0.386719 Z M 345.328125 22.949219 L 340.730469 22.949219 L 331.664062 11.472656 L 334.300781 9.1875 Z M 355.613281 23.335938 C 354.433594 23.335938 353.355469 23.195312 352.382812 22.917969 C 351.40625 22.636719 350.550781 22.25 349.8125 21.757812 C 349.070312 21.261719 348.460938 20.710938 347.980469 20.097656 C 347.496094 19.484375 347.15625 18.84375 346.964844 18.179688 L 350.628906 17.050781 C 350.90625 17.84375 351.453125 18.542969 352.269531 19.144531 C 353.082031 19.746094 354.089844 20.058594 355.289062 20.082031 C 356.683594 20.082031 357.789062 19.789062 358.601562 19.210938 C 359.417969 18.628906 359.824219 17.867188 359.824219 16.921875 C 359.824219 16.0625 359.480469 15.355469 358.792969 14.808594 C 358.109375 14.261719 357.1875 13.839844 356.03125 13.539062 L 353.265625 12.828125 C 352.214844 12.546875 351.265625 12.140625 350.421875 11.601562 C 349.574219 11.066406 348.910156 10.390625 348.429688 9.574219 C 347.945312 8.757812 347.703125 7.789062 347.703125 6.671875 C 347.703125 4.566406 348.386719 2.925781 349.761719 1.753906 C 351.132812 0.585938 353.09375 0 355.644531 0 C 357.078125 0 358.339844 0.21875 359.425781 0.65625 C 360.503906 1.101562 361.398438 1.703125 362.105469 2.460938 C 362.8125 3.226562 363.339844 4.09375 363.679688 5.058594 L 360.082031 6.21875 C 359.757812 5.359375 359.203125 4.652344 358.410156 4.09375 C 357.617188 3.535156 356.628906 3.253906 355.449219 3.253906 C 354.230469 3.253906 353.269531 3.546875 352.578125 4.125 C 351.878906 4.707031 351.527344 5.511719 351.527344 6.542969 C 351.527344 7.382812 351.804688 8.03125 352.351562 8.488281 C 352.894531 8.953125 353.640625 9.304688 354.582031 9.539062 L 357.347656 10.21875 C 359.363281 10.710938 360.925781 11.558594 362.042969 12.761719 C 363.15625 13.96875 363.714844 15.300781 363.714844 16.761719 C 363.714844 18.050781 363.402344 19.1875 362.78125 20.175781 C 362.160156 21.164062 361.246094 21.9375 360.035156 22.496094 C 358.824219 23.054688 357.347656 23.335938 355.613281 23.335938 Z M 355.613281 23.335938 "/>
</g>
<g clip-path="url(#clip3)" clip-rule="nonzero">
<path style=" stroke:none;fill-rule:nonzero;fill:rgb(100%,100%,100%);fill-opacity:1;" d="M 19.84375 0.730469 C 18.21875 0.730469 16.914062 2.039062 16.914062 3.667969 C 16.914062 3.988281 16.96875 4.308594 17.074219 4.628906 L 12.730469 8.984375 C 12.382812 8.824219 11.984375 8.742188 11.585938 8.742188 C 9.960938 8.742188 8.65625 10.050781 8.65625 11.679688 C 8.65625 13.308594 9.960938 14.621094 11.585938 14.621094 C 13.210938 14.621094 14.515625 13.308594 14.515625 11.679688 C 14.515625 11.039062 14.304688 10.480469 13.984375 10 L 18.007812 5.964844 C 18.511719 6.367188 19.152344 6.605469 19.84375 6.605469 C 21.46875 6.605469 22.777344 5.296875 22.777344 3.667969 C 22.777344 2.039062 21.46875 0.730469 19.84375 0.730469 M 11.585938 13.015625 C 10.839844 13.015625 10.253906 12.429688 10.253906 11.679688 C 10.253906 10.933594 10.839844 10.34375 11.585938 10.34375 C 12.332031 10.34375 12.917969 10.933594 12.917969 11.679688 C 12.917969 12.429688 12.332031 13.015625 11.585938 13.015625 M 19.84375 5.003906 C 19.097656 5.003906 18.511719 4.414062 18.511719 3.667969 C 18.511719 2.917969 19.097656 2.332031 19.84375 2.332031 C 20.589844 2.332031 21.175781 2.917969 21.175781 3.667969 C 21.175781 4.414062 20.589844 5.003906 19.84375 5.003906 "/>
</g>
<g clip-path="url(#clip4)" clip-rule="nonzero">
<path style=" stroke:none;fill-rule:nonzero;fill:rgb(100%,100%,100%);fill-opacity:1;" d="M 11.585938 6.605469 C 13.210938 6.605469 14.515625 5.296875 14.515625 3.667969 C 14.515625 2.039062 13.210938 0.730469 11.585938 0.730469 C 9.960938 0.730469 8.65625 2.039062 8.65625 3.667969 C 8.65625 5.296875 9.960938 6.605469 11.585938 6.605469 M 11.585938 2.332031 C 12.332031 2.332031 12.917969 2.917969 12.917969 3.667969 C 12.917969 4.414062 12.332031 5.003906 11.585938 5.003906 C 10.839844 5.003906 10.253906 4.414062 10.253906 3.667969 C 10.253906 2.917969 10.839844 2.332031 11.585938 2.332031 "/>
</g>
<g clip-path="url(#clip5)" clip-rule="nonzero">
<path style=" stroke:none;fill-rule:nonzero;fill:rgb(100%,100%,100%);fill-opacity:1;" d="M 19.84375 8.742188 C 18.21875 8.742188 16.914062 10.050781 16.914062 11.679688 C 16.914062 13.308594 18.21875 14.621094 19.84375 14.621094 C 21.46875 14.621094 22.777344 13.308594 22.777344 11.679688 C 22.777344 10.050781 21.46875 8.742188 19.84375 8.742188 M 19.84375 13.015625 C 19.097656 13.015625 18.511719 12.429688 18.511719 11.679688 C 18.511719 10.933594 19.097656 10.34375 19.84375 10.34375 C 20.589844 10.34375 21.175781 10.933594 21.175781 11.679688 C 21.175781 12.429688 20.589844 13.015625 19.84375 13.015625 "/>
</g>
<g clip-path="url(#clip6)" clip-rule="nonzero">
<path style=" stroke:none;fill-rule:nonzero;fill:rgb(100%,100%,100%);fill-opacity:1;" d="M 3.324219 22.632812 C 4.949219 22.632812 6.257812 21.324219 6.257812 19.695312 C 6.257812 18.066406 4.949219 16.757812 3.324219 16.757812 C 1.699219 16.757812 0.394531 18.066406 0.394531 19.695312 C 0.394531 21.324219 1.699219 22.632812 3.324219 22.632812 M 3.324219 18.359375 C 4.070312 18.359375 4.65625 18.945312 4.65625 19.695312 C 4.65625 20.441406 4.070312 21.03125 3.324219 21.03125 C 2.578125 21.03125 1.992188 20.441406 1.992188 19.695312 C 1.992188 18.945312 2.578125 18.359375 3.324219 18.359375 "/>
</g>
<g clip-path="url(#clip7)" clip-rule="nonzero">
<path style=" stroke:none;fill-rule:nonzero;fill:rgb(100%,100%,100%);fill-opacity:1;" d="M 19.84375 16.757812 C 18.511719 16.757812 17.367188 17.664062 17.019531 18.894531 L 14.382812 18.894531 C 14.035156 17.664062 12.917969 16.757812 11.558594 16.757812 C 10.757812 16.757812 10.011719 17.078125 9.480469 17.609375 L 5.484375 13.605469 C 5.988281 13.097656 6.257812 12.429688 6.257812 11.679688 C 6.257812 10.34375 5.351562 9.195312 4.125 8.851562 L 4.125 6.472656 C 5.351562 6.125 6.257812 5.003906 6.257812 3.640625 C 6.257812 2.011719 4.949219 0.703125 3.324219 0.703125 C 1.699219 0.703125 0.394531 2.039062 0.394531 3.667969 C 0.394531 5.003906 1.300781 6.152344 2.527344 6.5 L 2.527344 8.875 C 1.300781 9.195312 0.394531 10.34375 0.394531 11.679688 C 0.394531 13.308594 1.699219 14.621094 3.324219 14.621094 C 3.617188 14.621094 3.886719 14.566406 4.152344 14.511719 L 8.734375 19.105469 C 8.679688 19.292969 8.65625 19.480469 8.65625 19.695312 C 8.65625 21.324219 9.960938 22.632812 11.585938 22.632812 C 12.917969 22.632812 14.0625 21.722656 14.410156 20.496094 L 17.046875 20.496094 C 17.394531 21.722656 18.511719 22.632812 19.871094 22.632812 C 21.496094 22.632812 22.800781 21.324219 22.800781 19.695312 C 22.800781 18.066406 21.46875 16.757812 19.84375 16.757812 M 1.992188 3.667969 C 1.992188 2.917969 2.578125 2.332031 3.324219 2.332031 C 4.070312 2.332031 4.65625 2.917969 4.65625 3.667969 C 4.65625 4.414062 4.070312 5.003906 3.324219 5.003906 C 2.578125 5.003906 1.992188 4.414062 1.992188 3.667969 M 1.992188 11.679688 C 1.992188 10.933594 2.578125 10.34375 3.324219 10.34375 C 4.070312 10.34375 4.65625 10.933594 4.65625 11.679688 C 4.65625 12.429688 4.070312 13.015625 3.324219 13.015625 C 2.578125 13.015625 1.992188 12.429688 1.992188 11.679688 M 11.585938 21.03125 C 10.839844 21.03125 10.253906 20.441406 10.253906 19.695312 C 10.253906 18.945312 10.839844 18.359375 11.585938 18.359375 C 12.332031 18.359375 12.917969 18.945312 12.917969 19.695312 C 12.917969 20.441406 12.332031 21.03125 11.585938 21.03125 M 19.84375 21.03125 C 19.097656 21.03125 18.511719 20.441406 18.511719 19.695312 C 18.511719 18.945312 19.097656 18.359375 19.84375 18.359375 C 20.589844 18.359375 21.175781 18.945312 21.175781 19.695312 C 21.175781 20.441406 20.589844 21.03125 19.84375 21.03125 "/>
</g>
</g>
</svg>
